<svg viewBox="0 0 128 128" fill="none" xmlns="http://www.w3.org/2000/svg">
<g id="humidity">
<g transform="translate(64.5,64.2)"><g id="Raindrop" transform="translate(-64.5,-64.2)">
<path id="Vector" d="M64.5 34.9072C70.2518 43.6142 74.9613 50.7046 78.2588 56.9551C81.6339 63.3527 83.5 68.8178 83.5 74.1748C83.5 84.8565 74.9898 93.5 64.5 93.5C54.0106 93.5 45.5 84.832 45.5 74.1748C45.5 68.8305 47.366 63.3715 50.7412 56.9736C54.0388 50.723 58.7481 43.6263 64.5 34.9072Z" fill="url(#paint0_linear_1858_260)" stroke="#1D4ED8" stroke-miterlimit="10"/>
<path id="Label" d="M59.8673 73.936C59.0193 74.88 57.8353 75.352 56.3153 75.352C54.7793 75.352 53.5953 74.872 52.7633 73.912C51.9313 72.984 51.5153 71.648 51.5153 69.904C51.5153 68.16 51.9313 66.824 52.7633 65.896C53.5953 64.968 54.7793 64.504 56.3153 64.504C57.8513 64.504 59.0353 64.968 59.8673 65.896C60.6833 66.84 61.0913 68.176 61.0913 69.904C61.0913 71.664 60.6833 73.008 59.8673 73.936ZM60.2993 82.36H57.3233L68.6033 64.552H71.5553L60.2993 82.36ZM54.3953 69.928C54.3953 71.96 55.0353 72.976 56.3153 72.976C57.5953 72.976 58.2353 71.96 58.2353 69.928C58.2353 67.912 57.5953 66.904 56.3153 66.904C55.0353 66.904 54.3953 67.912 54.3953 69.928ZM76.2353 80.944C75.4033 81.904 74.2193 82.384 72.6833 82.384C71.1473 82.384 69.9713 81.904 69.1553 80.944C68.3233 80.016 67.9073 78.68 67.9073 76.936C67.9073 75.192 68.3233 73.856 69.1553 72.928C69.9713 72 71.1473 71.536 72.6833 71.536C74.2193 71.536 75.4033 72 76.2353 72.928C77.0513 73.872 77.4593 75.208 77.4593 76.936C77.4593 78.68 77.0513 80.016 76.2353 80.944ZM72.6833 73.936C71.4033 73.936 70.7633 74.944 70.7633 76.96C70.7633 78.976 71.4033 79.984 72.6833 79.984C73.9633 79.984 74.6033 78.976 74.6033 76.96C74.6033 74.944 73.9633 73.936 72.6833 73.936Z" fill="#E2E8F0"/>
</g><animateTransform attributeName="transform" type="scale" values="1 1;1.1 1.1;1 1" dur="3s" begin="0s" repeatCount="indefinite" calcMode="spline" keySplines=".42 0 .58 1; .42 0 .58 1" additive="sum"/></g>
</g>
<defs>
<linearGradient id="paint0_linear_1858_260" x1="64.5" y1="34" x2="64.5" y2="94" gradientUnits="userSpaceOnUse">
<stop stop-color="#2563EB"/>
<stop offset="1" stop-color="#1D4ED8"/>
</linearGradient>
</defs>
</svg>